<?xml version="1.0" encoding="UTF-8"?>
<svg width="24px" height="13px" viewBox="0 0 24 13" version="1.1" xmlns="http://www.w3.org/2000/svg" xmlns:xlink="http://www.w3.org/1999/xlink">
    <title>FA1C56E9-9235-4E6D-8D97-BBA20C026545</title>
    <g id="2.0" stroke="none" stroke-width="1" fill="none" fill-rule="evenodd">
        <g id="Supra--boat-builder---tour---1" transform="translate(-655.000000, -194.000000)" fill="#CE0E2D" fill-rule="nonzero">
            <g id="tour-btn" transform="translate(630.000000, 179.000000)">
                <g id="icon-tour" transform="translate(25.000000, 15.000000)">
                    <path d="M24,5.1414791 C24,7.35691318 21.2423698,9.11254019 16.545781,9.90675241 C16.0287253,9.9903537 15.5547576,9.65594855 15.4254937,9.15434084 C15.3393178,8.65273312 15.6840215,8.1511254 16.2010772,8.06752412 C19.9928187,7.44051447 22.0610413,6.10289389 22.0610413,5.1414791 C22.0610413,3.80385852 18.1400359,1.88102894 11.978456,1.88102894 C5.85996409,1.88102894 1.89587074,3.80385852 1.89587074,5.1414791 C1.89587074,6.31189711 4.91202873,7.94212219 9.82405745,8.31832797 L8.7037702,7.18971061 C8.31597846,6.81350482 8.31597846,6.22829582 8.7037702,5.85209003 C9.09156194,5.47588424 9.69479354,5.47588424 10.0825853,5.85209003 L12.9694794,8.61093248 C13.3572711,8.98713826 13.3572711,9.57234727 12.9694794,9.94855305 L10.1256732,12.7491961 C9.91023339,12.9163987 9.69479354,13 9.43626571,13 C9.17773788,13 8.91921005,12.9163987 8.74685817,12.7491961 C8.35906643,12.3729904 8.35906643,11.7877814 8.74685817,11.4115756 L10.0394973,10.1157556 C4.91202873,9.78135048 0,8.02572347 0,5.09967846 C0,1.79742765 6.16157989,0 11.978456,0 L11.978456,0 C17.7953321,0.0418006431 24,1.79742765 24,5.1414791 Z" id="Path"></path>
                </g>
            </g>
        </g>
    </g>
</svg>